<?xml version="1.0" encoding="UTF-8" standalone="no"?>
<!-- Created with Inkscape (http://www.inkscape.org/) -->

<svg
   xmlns:dc="http://purl.org/dc/elements/1.1/"
   xmlns:cc="http://creativecommons.org/ns#"
   xmlns:rdf="http://www.w3.org/1999/02/22-rdf-syntax-ns#"
   xmlns:svg="http://www.w3.org/2000/svg"
   xmlns="http://www.w3.org/2000/svg"
   xmlns:sodipodi="http://sodipodi.sourceforge.net/DTD/sodipodi-0.dtd"
   xmlns:inkscape="http://www.inkscape.org/namespaces/inkscape"
   width="288"
   height="505.4902"
   viewBox="0 0 76.200002 133.74429"
   version="1.1"
   id="svg8"
   inkscape:version="0.92.2 5c3e80d, 2017-08-06"
   sodipodi:docname="queen-5a.svg"
   inkscape:export-filename="/Users/irk/projects/erica-steenbergen/queen-4.png"
   inkscape:export-xdpi="300"
   inkscape:export-ydpi="300">
  <sodipodi:namedview
     inkscape:snap-others="false"
     inkscape:snap-global="true"
     inkscape:snap-nodes="true"
     id="base"
     pagecolor="#ffffff"
     bordercolor="#666666"
     borderopacity="1.0"
     inkscape:pageopacity="0.0"
     inkscape:pageshadow="2"
     inkscape:zoom="1.979899"
     inkscape:cx="176.44458"
     inkscape:cy="332.85311"
     inkscape:document-units="mm"
     inkscape:current-layer="layer1"
     showgrid="true"
     units="px"
     borderlayer="true"
     inkscape:showpageshadow="false"
     inkscape:snap-bbox="true"
     inkscape:snap-object-midpoints="false"
     scale-x="1.2"
     fit-margin-top="0"
     fit-margin-left="0"
     fit-margin-right="0"
     fit-margin-bottom="0"
     inkscape:snap-to-guides="false"
     inkscape:snap-page="true"
     inkscape:snap-bbox-edge-midpoints="true"
     inkscape:bbox-nodes="true"
     inkscape:bbox-paths="true">
    <inkscape:grid
       originy="66.936995"
       originx="0"
       empopacity="0.1254902"
       empcolor="#0000ff"
       empspacing="6"
       id="grid815"
       type="xygrid" />
    <inkscape:grid
       originy="66.936995"
       originx="0"
       empopacity="0.1254902"
       empcolor="#ff3f00"
       empspacing="36"
       id="grid817"
       type="xygrid" />
  </sodipodi:namedview>
  <defs
     id="defs2">
    <inkscape:path-effect
       is_visible="true"
       id="path-effect28104"
       effect="spiro" />
    <inkscape:path-effect
       fuse_tolerance="0"
       vertical_pattern="false"
       prop_units="false"
       tang_offset="0"
       normal_offset="0"
       spacing="0"
       scale_y_rel="false"
       prop_scale="0.26458334"
       copytype="single_stretched"
       pattern="M 103.1875,9.6572881 H 95.249999 V 12.832288 H 103.1875 V 16.007288 H 95.249999"
       is_visible="true"
       id="path-effect28082"
       effect="skeletal" />
    <inkscape:path-effect
       is_visible="true"
       id="path-effect28054"
       effect="spiro" />
  </defs>
  <metadata
     id="metadata5">
    <rdf:RDF>
      <cc:Work
         rdf:about="">
        <dc:format>image/svg+xml</dc:format>
        <dc:type
           rdf:resource="http://purl.org/dc/dcmitype/StillImage" />
        <dc:title></dc:title>
      </cc:Work>
    </rdf:RDF>
  </metadata>
  <g
     transform="translate(0,-230.1927)"
     id="layer1"
     inkscape:groupmode="layer"
     inkscape:label="Layer 1">
    <path
       style="fill:none;fill-opacity:1;fill-rule:evenodd;stroke:#000000;stroke-width:1;stroke-linecap:butt;stroke-linejoin:miter;stroke-miterlimit:4;stroke-dasharray:none;stroke-opacity:1"
       d="M 88.412391,328.93698 C 97.954542,328.71149 104.28739,318.46681 104.27498,309.71231 V 300.18731 286.78813"
       id="path1489-5" />
    <circle
       style="opacity:1;fill:#cc3c2c;fill-opacity:1;fill-rule:nonzero;stroke:none;stroke-width:0.26458332;stroke-miterlimit:4;stroke-dasharray:none;stroke-opacity:1"
       id="path2071-5-8"
       cx="-59.928127"
       cy="223.97499"
       r="47.228127" />
    <circle
       style="opacity:1;fill:#ffeea8;fill-opacity:1;fill-rule:nonzero;stroke:none;stroke-width:0.26458332;stroke-miterlimit:4;stroke-dasharray:none;stroke-opacity:1"
       id="path2071-5"
       cx="-55.165627"
       cy="309.69998"
       r="20.240625" />
    <g
       id="g6007">
      <path
         sodipodi:nodetypes="cccccccc"
         inkscape:connector-curvature="0"
         id="path2071-5-8-8"
         transform="matrix(0.26458333,0,0,0.26458333,0,230.1927)"
         d="M 89.123047,0.5 C 56.336887,32.864718 36.000019,77.81024 36,127.51953 36.045808,142.52259 37.982998,157.46003 41.765625,171.97852 50.233014,166.72543 59.7448,160.8588 71.427734,152.94727 L 171,85.519531 C 171.80297,83.495139 172.59615,81.476956 173.39453,79.455078 L 138,0.5 Z"
         style="opacity:1;fill:#cc3c2c;fill-opacity:1;fill-rule:nonzero;stroke:none;stroke-width:0.99999994;stroke-miterlimit:4;stroke-dasharray:none;stroke-opacity:1" />
      <g
         id="g5887">
        <path
           style="fill:#1c3ca8;fill-opacity:1;fill-rule:evenodd;stroke:none;stroke-width:0.26458332px;stroke-linecap:butt;stroke-linejoin:miter;stroke-opacity:1"
           d="M 0,295.41249 V 325.57499 C 9.525,325.57499 15.875,316.04999 15.875,306.52499 V 296.99999 H 76.199999 V 277.94999 C 73.025,279.53749 57.150001,277.94999 57.15,274.77499 55.5625,271.59999 46.0375,250.96249 46.0375,250.96249 L 19.692559,268.80297 C 3.9190217,279.48462 0,277.94999 0,295.41249 Z"
           id="path1489"
           inkscape:connector-curvature="0"
           sodipodi:nodetypes="ccccccccsc" />
        <path
           style="fill:#cc3c2c;fill-opacity:1;fill-rule:evenodd;stroke:none;stroke-width:0.26458332px;stroke-linecap:butt;stroke-linejoin:miter;stroke-opacity:1"
           d="M 19.05,271.59999 38.1,296.99999 V 271.59999 Z"
           id="path5879"
           inkscape:connector-curvature="0"
           sodipodi:nodetypes="cccc" />
        <path
           style="fill:#ffffff;fill-opacity:1;fill-rule:evenodd;stroke:none;stroke-width:0.26458332px;stroke-linecap:butt;stroke-linejoin:miter;stroke-opacity:1"
           d="M 19.84375,230.18564 C 19.84375,255.58564 30.1625,260.48749 46.0375,249.37499 L 37.306249,230.18564 Z"
           id="path1510"
           inkscape:connector-curvature="0"
           sodipodi:nodetypes="cccc" />
        <path
           style="fill:#cc3c2c;fill-opacity:1;fill-rule:evenodd;stroke:none;stroke-width:0.26458332px;stroke-linecap:butt;stroke-linejoin:miter;stroke-opacity:1"
           d="M 39.6875,230.32499 58.7375,276.36249 H 57.15 L 36.5125,230.32499 Z"
           id="path1487"
           inkscape:connector-curvature="0" />
        <path
           style="fill:#ffeea8;fill-opacity:1;fill-rule:evenodd;stroke:none;stroke-width:0.26458332px;stroke-linecap:butt;stroke-linejoin:miter;stroke-opacity:1"
           d="M 46.02717,250.69791 19.682003,268.53816 C 18.911356,269.06004 18.177481,269.5453 17.4625,270.01249 A 20.240625,20.240625 0 0 0 33.327166,277.68541 20.240625,20.240625 0 0 0 52.33996,264.31413 C 49.29411,257.76919 46.02717,250.69791 46.02717,250.69791 Z"
           id="path1489-8"
           inkscape:connector-curvature="0" />
        <path
           style="opacity:1;fill:#ffeea8;fill-opacity:1;fill-rule:nonzero;stroke:none;stroke-width:0.26458332;stroke-miterlimit:4;stroke-dasharray:none;stroke-opacity:1"
           d="M 15.875,283.35508 V 296.75427 306.27927 C 15.875,312.92135 12.784349,319.55904 7.6853206,322.97127 8.9452744,323.21679 10.225728,323.34189 11.509375,323.34489 22.687963,323.34489 31.75,314.28285 31.75,303.10427 31.742949,293.61348 25.142399,285.40211 15.875,283.35508 Z"
           id="path2071-5-4"
           inkscape:connector-curvature="0"
           sodipodi:nodetypes="ccscccc" />
      </g>
    </g>
    <path
       style="opacity:1;fill:none;fill-opacity:1;fill-rule:nonzero;stroke:#000000;stroke-width:0.26499999;stroke-miterlimit:4;stroke-dasharray:none;stroke-opacity:1"
       d="M 98.425,277.00508 V 290.40427 299.92927 C 98.425,306.57135 95.334349,313.20904 90.235321,316.62127"
       id="path2071-5-4-4" />
    <path
       id="path27033"
       d="M 95.25,273.64106 H 93.88929 V 275.00177 H 93.43572 V 273.18748 H 92.98214 V 275.45534 H 94.34286 V 274.09463 H 94.79643 V 275.90891 H 92.98214 V 276.36249 H 95.25 Z M 92.52857,273.18748 H 92.075 V 275.00177 H 91.62143 V 273.64106 H 90.26071 V 276.36249 H 92.52857 V 275.90891 H 90.71429 V 274.09463 H 91.16786 V 275.45534 H 92.52857 Z"
       style="fill:#1c219f;fill-opacity:1;fill-rule:evenodd;stroke:none;stroke-width:0.26458332px;stroke-linecap:butt;stroke-linejoin:miter;stroke-opacity:1"
       inkscape:connector-curvature="0"
       sodipodi:nodetypes="cccccccccccccccccccccccccccccc" />
    <path
       inkscape:connector-curvature="0"
       id="path0110"
       d="M 84.81786,280.43666 C 84.81786,280.43666 83.45715,280.43666 83.45715,280.43666 83.45715,280.43666 83.45715,279.04394 83.45715,279.04394 83.45715,279.04394 83.00358,279.04394 83.00358,279.04394 83.00358,279.04394 83.00358,280.90091 83.00358,280.90091 83.00358,280.90091 82.55,280.90091 82.55,280.90091 82.55,280.90091 82.55,278.5797 82.55,278.5797 82.55,278.5797 83.91072,278.5797 83.91072,278.5797 83.91072,278.5797 83.91072,279.97242 83.91072,279.97242 83.91072,279.97242 84.36429,279.97242 84.36429,279.97242 84.36429,279.97242 84.36429,278.11547 84.36429,278.11547 84.36429,278.11547 82.55,278.11547 82.55,278.11547 82.55,278.11547 82.55,277.65122 82.55,277.65122 82.55,277.65122 84.81786,277.65122 84.81786,277.65122 84.81786,277.65122 84.81786,280.43666 84.81786,280.43666 M 84.81786,283.68635 C 84.81786,283.68635 83.45715,283.68635 83.45715,283.68635 83.45715,283.68635 83.45715,282.29364 83.45715,282.29364 83.45715,282.29364 83.00358,282.29364 83.00358,282.29364 83.00358,282.29364 83.00358,284.1506 83.00358,284.1506 83.00358,284.1506 82.55,284.1506 82.55,284.1506 82.55,284.1506 82.55,281.8294 82.55,281.8294 82.55,281.8294 83.91072,281.8294 83.91072,281.8294 83.91072,281.8294 83.91072,283.22211 83.91072,283.22211 83.91072,283.22211 84.36429,283.22211 84.36429,283.22211 84.36429,283.22211 84.36429,281.36516 84.36429,281.36516 84.36429,281.36516 82.55,281.36516 82.55,281.36516 82.55,281.36516 82.55,280.90091 82.55,280.90091 82.55,280.90091 84.81786,280.90091 84.81786,280.90091 84.81786,280.90091 84.81786,283.68635 84.81786,283.68635 M 84.81786,286.93605 C 84.81786,286.93605 83.45715,286.93605 83.45715,286.93605 83.45715,286.93605 83.45715,285.54333 83.45715,285.54333 83.45715,285.54333 83.00358,285.54333 83.00358,285.54333 83.00358,285.54333 83.00358,287.4003 83.00358,287.4003 83.00358,287.4003 82.55,287.4003 82.55,287.4003 82.55,287.4003 82.55,285.07909 82.55,285.07909 82.55,285.07909 83.91072,285.07909 83.91072,285.07909 83.91072,285.07909 83.91072,286.47181 83.91072,286.47181 83.91072,286.47181 84.36429,286.47181 84.36429,286.47181 84.36429,286.47181 84.36429,284.61485 84.36429,284.61485 84.36429,284.61485 82.55,284.61485 82.55,284.61485 82.55,284.61485 82.55,284.1506 82.55,284.1506 82.55,284.1506 84.81786,284.1506 84.81786,284.1506 84.81786,284.1506 84.81786,286.93605 84.81786,286.93605 M 84.81786,290.18574 C 84.81786,290.18574 83.45715,290.18574 83.45715,290.18574 83.45715,290.18574 83.45715,288.79302 83.45715,288.79302 83.45715,288.79302 83.00358,288.79302 83.00358,288.79302 83.00358,288.79302 83.00358,290.64999 83.00358,290.64999 83.00358,290.64999 82.55,290.64999 82.55,290.64999 82.55,290.64999 82.55,288.32878 82.55,288.32878 82.55,288.32878 83.91072,288.32878 83.91072,288.32878 83.91072,288.32878 83.91072,289.7215 83.91072,289.7215 83.91072,289.7215 84.36429,289.7215 84.36429,289.7215 84.36429,289.7215 84.36429,287.86454 84.36429,287.86454 84.36429,287.86454 82.55,287.86454 82.55,287.86454 82.55,287.86454 82.55,287.4003 82.55,287.4003 82.55,287.4003 84.81786,287.4003 84.81786,287.4003 84.81786,287.4003 84.81786,290.18574 84.81786,290.18574 M 84.81786,293.43543 C 84.81786,293.43543 83.45715,293.43543 83.45715,293.43543 83.45715,293.43543 83.45715,292.04272 83.45715,292.04272 83.45715,292.04272 83.00358,292.04272 83.00358,292.04272 83.00358,292.04272 83.00358,293.89968 83.00358,293.89968 83.00358,293.89968 82.55,293.89968 82.55,293.89968 82.55,293.89968 82.55,291.57848 82.55,291.57848 82.55,291.57848 83.91072,291.57848 83.91072,291.57848 83.91072,291.57848 83.91072,292.97119 83.91072,292.97119 83.91072,292.97119 84.36429,292.97119 84.36429,292.97119 84.36429,292.97119 84.36429,291.11424 84.36429,291.11424 84.36429,291.11424 82.55,291.11424 82.55,291.11424 82.55,291.11424 82.55,290.64999 82.55,290.64999 82.55,290.64999 84.81786,290.64999 84.81786,290.64999 84.81786,290.64999 84.81786,293.43543 84.81786,293.43543 M 84.81786,296.68512 C 84.81786,296.68512 83.45715,296.68512 83.45715,296.68512 83.45715,296.68512 83.45715,295.29241 83.45715,295.29241 83.45715,295.29241 83.00358,295.29241 83.00358,295.29241 83.00358,295.29241 83.00358,297.14937 83.00358,297.14937 83.00358,297.14937 82.55,297.14937 82.55,297.14937 82.55,297.14937 82.55,294.82817 82.55,294.82817 82.55,294.82817 83.91072,294.82817 83.91072,294.82817 83.91072,294.82817 83.91072,296.22089 83.91072,296.22089 83.91072,296.22089 84.36429,296.22089 84.36429,296.22089 84.36429,296.22089 84.36429,294.36393 84.36429,294.36393 84.36429,294.36393 82.55,294.36393 82.55,294.36393 82.55,294.36393 82.55,293.89968 82.55,293.89968 82.55,293.89968 84.81786,293.89968 84.81786,293.89968 84.81786,293.89968 84.81786,296.68512 84.81786,296.68512 M 84.81786,299.93482 C 84.81786,299.93482 83.45715,299.93482 83.45715,299.93482 83.45715,299.93482 83.45715,298.5421 83.45715,298.5421 83.45715,298.5421 83.00358,298.5421 83.00358,298.5421 83.00358,298.5421 83.00358,300.39907 83.00358,300.39907 83.00358,300.39907 82.55,300.39907 82.55,300.39907 82.55,300.39907 82.55,298.07786 82.55,298.07786 82.55,298.07786 83.91072,298.07786 83.91072,298.07786 83.91072,298.07786 83.91072,299.47058 83.91072,299.47058 83.91072,299.47058 84.36429,299.47058 84.36429,299.47058 84.36429,299.47058 84.36429,297.61362 84.36429,297.61362 84.36429,297.61362 82.55,297.61362 82.55,297.61362 82.55,297.61362 82.55,297.14937 82.55,297.14937 82.55,297.14937 84.81786,297.14937 84.81786,297.14937 84.81786,297.14937 84.81786,299.93482 84.81786,299.93482 M 84.658189,303.17784 C 84.658189,303.17784 83.297479,303.17784 83.297479,303.17784 83.297479,303.17784 83.422029,301.79112 83.422029,301.79112 83.422029,301.79112 82.968459,301.79112 82.968459,301.79112 82.968459,301.79112 82.778142,303.63735 82.778142,303.63735 82.778142,303.63735 82.324562,303.63735 82.324562,303.63735 82.324562,303.63735 82.528283,301.32714 82.528283,301.32714 82.528283,301.32714 83.889003,301.32714 83.889003,301.32714 83.889003,301.32714 83.797557,302.71614 83.797557,302.71614 83.797557,302.71614 84.251127,302.71614 84.251127,302.71614 84.251127,302.71614 84.355977,300.86316 84.355977,300.86316 84.355977,300.86316 82.541687,300.86316 82.541687,300.86316 82.541687,300.86316 82.55,300.39907 82.55,300.39907 82.55,300.39907 84.81786,300.39907 84.81786,300.39907 84.81786,300.39907 84.658189,303.17784 84.658189,303.17784 M 84.033295,306.36333 C 84.033295,306.36333 82.672585,306.36333 82.672585,306.36333 82.672585,306.36333 82.99417,305.00894 82.99417,305.00894 82.99417,305.00894 82.5406,305.00894 82.5406,305.00894 82.5406,305.00894 82.096626,306.81095 82.096626,306.81095 82.096626,306.81095 81.643046,306.81095 81.643046,306.81095 81.643046,306.81095 82.178257,304.55381 82.178257,304.55381 82.178257,304.55381 83.538977,304.55381 83.538977,304.55381 83.538977,304.55381 83.24248,305.91396 83.24248,305.91396 83.24248,305.91396 83.69605,305.91396 83.69605,305.91396 83.69605,305.91396 84.073084,304.09685 84.073084,304.09685 84.073084,304.09685 82.258794,304.09685 82.258794,304.09685 82.258794,304.09685 82.324562,303.63735 82.324562,303.63735 82.324562,303.63735 84.592422,303.63735 84.592422,303.63735 84.592422,303.63735 84.033295,306.36333 84.033295,306.36333 M 82.953071,309.42379 C 82.953071,309.42379 81.592361,309.42379 81.592361,309.42379 81.592361,309.42379 82.112387,308.13252 82.112387,308.13252 82.112387,308.13252 81.658817,308.13252 81.658817,308.13252 81.658817,308.13252 80.948828,309.84732 80.948828,309.84732 80.948828,309.84732 80.495248,309.84732 80.495248,309.84732 80.495248,309.84732 81.360844,307.69539 81.360844,307.69539 81.360844,307.69539 82.721564,307.69539 82.721564,307.69539 82.721564,307.69539 82.234705,308.99977 82.234705,308.99977 82.234705,308.99977 82.688275,308.99977 82.688275,308.99977 82.688275,308.99977 83.316233,307.25318 83.316233,307.25318 83.316233,307.25318 81.501943,307.25318 81.501943,307.25318 81.501943,307.25318 81.643046,306.81095 81.643046,306.81095 81.643046,306.81095 83.910906,306.81095 83.910906,306.81095 83.910906,306.81095 82.953071,309.42379 82.953071,309.42379 M 81.426089,312.28768 C 81.426089,312.28768 80.065379,312.28768 80.065379,312.28768 80.065379,312.28768 80.776268,311.09069 80.776268,311.09069 80.776268,311.09069 80.322698,311.09069 80.322698,311.09069 80.322698,311.09069 79.349735,312.67079 79.349735,312.67079 79.349735,312.67079 78.896155,312.67079 78.896155,312.67079 78.896155,312.67079 80.083255,310.67887 80.083255,310.67887 80.083255,310.67887 81.443975,310.67887 81.443975,310.67887 81.443975,310.67887 80.76024,311.89127 80.76024,311.89127 80.76024,311.89127 81.21381,311.89127 81.21381,311.89127 81.21381,311.89127 82.111683,310.26704 82.111683,310.26704 82.111683,310.26704 80.297393,310.26704 80.297393,310.26704 80.297393,310.26704 80.495248,309.84732 80.495248,309.84732 80.495248,309.84732 82.763108,309.84732 82.763108,309.84732 82.763108,309.84732 81.426089,312.28768 81.426089,312.28768 M 79.43645,314.85098 C 79.43645,314.85098 78.07574,314.85098 78.07574,314.85098 78.07574,314.85098 78.980098,313.79304 78.980098,313.79304 78.980098,313.79304 78.526528,313.79304 78.526528,313.79304 78.526528,313.79304 77.301889,315.18656 77.301889,315.18656 77.301889,315.18656 76.848309,315.18656 76.848309,315.18656 76.848309,315.18656 78.358704,313.42727 78.358704,313.42727 78.358704,313.42727 79.719424,313.42727 79.719424,313.42727 79.719424,313.42727 78.838451,314.50476 78.838451,314.50476 78.838451,314.50476 79.292021,314.50476 79.292021,314.50476 79.292021,314.50476 80.44837,313.0539 80.44837,313.0539 80.44837,313.0539 78.63408,313.0539 78.63408,313.0539 78.63408,313.0539 78.896155,312.67079 78.896155,312.67079 78.896155,312.67079 81.164015,312.67079 81.164015,312.67079 81.164015,312.67079 79.43645,314.85098 79.43645,314.85098 M 77.003777,316.99473 C 77.003777,316.99473 75.643067,316.99473 75.643067,316.99473 75.643067,316.99473 76.737539,316.13553 76.737539,316.13553 76.737539,316.13553 76.283969,316.13553 76.283969,316.13553 76.283969,316.13553 74.813901,317.26741 74.813901,317.26741 74.813901,317.26741 74.360321,317.26741 74.360321,317.26741 74.360321,317.26741 76.184168,315.83514 76.184168,315.83514 76.184168,315.83514 77.544888,315.83514 77.544888,315.83514 77.544888,315.83514 76.472226,316.72206 76.472226,316.72206 76.472226,316.72206 76.925796,316.72206 76.925796,316.72206 76.925796,316.72206 78.330525,315.51085 78.330525,315.51085 78.330525,315.51085 76.516235,315.51085 76.516235,315.51085 76.516235,315.51085 76.848309,315.18656 76.848309,315.18656 76.848309,315.18656 79.116169,315.18656 79.116169,315.18656 79.116169,315.18656 77.003777,316.99473 77.003777,316.99473 M 82.09643,280.90091 C 82.09643,280.90091 81.64286,280.90091 81.64286,280.90091 81.64286,280.90091 81.64286,279.04394 81.64286,279.04394 81.64286,279.04394 81.18929,279.04394 81.18929,279.04394 81.18929,279.04394 81.18929,280.43666 81.18929,280.43666 81.18929,280.43666 79.82857,280.43666 79.82857,280.43666 79.82857,280.43666 79.82857,277.65122 79.82857,277.65122 79.82857,277.65122 82.09643,277.65122 82.09643,277.65122 82.09643,277.65122 82.09643,278.11547 82.09643,278.11547 82.09643,278.11547 80.28215,278.11547 80.28215,278.11547 80.28215,278.11547 80.28215,279.97242 80.28215,279.97242 80.28215,279.97242 80.73572,279.97242 80.73572,279.97242 80.73572,279.97242 80.73572,278.5797 80.73572,278.5797 80.73572,278.5797 82.09643,278.5797 82.09643,278.5797 82.09643,278.5797 82.09643,280.90091 82.09643,280.90091 M 82.09643,284.1506 C 82.09643,284.1506 81.64286,284.1506 81.64286,284.1506 81.64286,284.1506 81.64286,282.29364 81.64286,282.29364 81.64286,282.29364 81.18929,282.29364 81.18929,282.29364 81.18929,282.29364 81.18929,283.68635 81.18929,283.68635 81.18929,283.68635 79.82857,283.68635 79.82857,283.68635 79.82857,283.68635 79.82857,280.90091 79.82857,280.90091 79.82857,280.90091 82.09643,280.90091 82.09643,280.90091 82.09643,280.90091 82.09643,281.36516 82.09643,281.36516 82.09643,281.36516 80.28215,281.36516 80.28215,281.36516 80.28215,281.36516 80.28215,283.22211 80.28215,283.22211 80.28215,283.22211 80.73572,283.22211 80.73572,283.22211 80.73572,283.22211 80.73572,281.8294 80.73572,281.8294 80.73572,281.8294 82.09643,281.8294 82.09643,281.8294 82.09643,281.8294 82.09643,284.1506 82.09643,284.1506 M 82.09643,287.4003 C 82.09643,287.4003 81.64286,287.4003 81.64286,287.4003 81.64286,287.4003 81.64286,285.54333 81.64286,285.54333 81.64286,285.54333 81.18929,285.54333 81.18929,285.54333 81.18929,285.54333 81.18929,286.93605 81.18929,286.93605 81.18929,286.93605 79.82857,286.93605 79.82857,286.93605 79.82857,286.93605 79.82857,284.1506 79.82857,284.1506 79.82857,284.1506 82.09643,284.1506 82.09643,284.1506 82.09643,284.1506 82.09643,284.61485 82.09643,284.61485 82.09643,284.61485 80.28215,284.61485 80.28215,284.61485 80.28215,284.61485 80.28215,286.47181 80.28215,286.47181 80.28215,286.47181 80.73572,286.47181 80.73572,286.47181 80.73572,286.47181 80.73572,285.07909 80.73572,285.07909 80.73572,285.07909 82.09643,285.07909 82.09643,285.07909 82.09643,285.07909 82.09643,287.4003 82.09643,287.4003 M 82.09643,290.64999 C 82.09643,290.64999 81.64286,290.64999 81.64286,290.64999 81.64286,290.64999 81.64286,288.79302 81.64286,288.79302 81.64286,288.79302 81.18929,288.79302 81.18929,288.79302 81.18929,288.79302 81.18929,290.18574 81.18929,290.18574 81.18929,290.18574 79.82857,290.18574 79.82857,290.18574 79.82857,290.18574 79.82857,287.4003 79.82857,287.4003 79.82857,287.4003 82.09643,287.4003 82.09643,287.4003 82.09643,287.4003 82.09643,287.86454 82.09643,287.86454 82.09643,287.86454 80.28215,287.86454 80.28215,287.86454 80.28215,287.86454 80.28215,289.7215 80.28215,289.7215 80.28215,289.7215 80.73572,289.7215 80.73572,289.7215 80.73572,289.7215 80.73572,288.32878 80.73572,288.32878 80.73572,288.32878 82.09643,288.32878 82.09643,288.32878 82.09643,288.32878 82.09643,290.64999 82.09643,290.64999 M 82.09643,293.89968 C 82.09643,293.89968 81.64286,293.89968 81.64286,293.89968 81.64286,293.89968 81.64286,292.04272 81.64286,292.04272 81.64286,292.04272 81.18929,292.04272 81.18929,292.04272 81.18929,292.04272 81.18929,293.43543 81.18929,293.43543 81.18929,293.43543 79.82857,293.43543 79.82857,293.43543 79.82857,293.43543 79.82857,290.64999 79.82857,290.64999 79.82857,290.64999 82.09643,290.64999 82.09643,290.64999 82.09643,290.64999 82.09643,291.11424 82.09643,291.11424 82.09643,291.11424 80.28215,291.11424 80.28215,291.11424 80.28215,291.11424 80.28215,292.97119 80.28215,292.97119 80.28215,292.97119 80.73572,292.97119 80.73572,292.97119 80.73572,292.97119 80.73572,291.57848 80.73572,291.57848 80.73572,291.57848 82.09643,291.57848 82.09643,291.57848 82.09643,291.57848 82.09643,293.89968 82.09643,293.89968 M 82.09643,297.14937 C 82.09643,297.14937 81.64286,297.14937 81.64286,297.14937 81.64286,297.14937 81.64286,295.29241 81.64286,295.29241 81.64286,295.29241 81.18929,295.29241 81.18929,295.29241 81.18929,295.29241 81.18929,296.68512 81.18929,296.68512 81.18929,296.68512 79.82857,296.68512 79.82857,296.68512 79.82857,296.68512 79.82857,293.89968 79.82857,293.89968 79.82857,293.89968 82.09643,293.89968 82.09643,293.89968 82.09643,293.89968 82.09643,294.36393 82.09643,294.36393 82.09643,294.36393 80.28215,294.36393 80.28215,294.36393 80.28215,294.36393 80.28215,296.22089 80.28215,296.22089 80.28215,296.22089 80.73572,296.22089 80.73572,296.22089 80.73572,296.22089 80.73572,294.82817 80.73572,294.82817 80.73572,294.82817 82.09643,294.82817 82.09643,294.82817 82.09643,294.82817 82.09643,297.14937 82.09643,297.14937 M 82.09643,300.39907 C 82.09643,300.39907 81.64286,300.39907 81.64286,300.39907 81.64286,300.39907 81.64286,298.5421 81.64286,298.5421 81.64286,298.5421 81.18929,298.5421 81.18929,298.5421 81.18929,298.5421 81.18929,299.93482 81.18929,299.93482 81.18929,299.93482 79.82857,299.93482 79.82857,299.93482 79.82857,299.93482 79.82857,297.14937 79.82857,297.14937 79.82857,297.14937 82.09643,297.14937 82.09643,297.14937 82.09643,297.14937 82.09643,297.61362 82.09643,297.61362 82.09643,297.61362 80.28215,297.61362 80.28215,297.61362 80.28215,297.61362 80.28215,299.47058 80.28215,299.47058 80.28215,299.47058 80.73572,299.47058 80.73572,299.47058 80.73572,299.47058 80.73572,298.07786 80.73572,298.07786 80.73572,298.07786 82.09643,298.07786 82.09643,298.07786 82.09643,298.07786 82.09643,300.39907 82.09643,300.39907 M 81.870992,303.63735 C 81.870992,303.63735 81.417422,303.63735 81.417422,303.63735 81.417422,303.63735 81.607739,301.79112 81.607739,301.79112 81.607739,301.79112 81.154169,301.79112 81.154169,301.79112 81.154169,301.79112 81.029619,303.17784 81.029619,303.17784 81.029619,303.17784 79.668899,303.17784 79.668899,303.17784 79.668899,303.17784 79.82857,300.39907 79.82857,300.39907 79.82857,300.39907 82.09643,300.39907 82.09643,300.39907 82.09643,300.39907 82.088117,300.86316 82.088117,300.86316 82.088117,300.86316 80.273837,300.86316 80.273837,300.86316 80.273837,300.86316 80.168987,302.71614 80.168987,302.71614 80.168987,302.71614 80.622557,302.71614 80.622557,302.71614 80.622557,302.71614 80.714003,301.32714 80.714003,301.32714 80.714003,301.32714 82.074713,301.32714 82.074713,301.32714 82.074713,301.32714 81.870992,303.63735 81.870992,303.63735 M 81.189476,306.81095 C 81.189476,306.81095 80.735906,306.81095 80.735906,306.81095 80.735906,306.81095 81.17988,305.00894 81.17988,305.00894 81.17988,305.00894 80.72631,305.00894 80.72631,305.00894 80.72631,305.00894 80.404725,306.36333 80.404725,306.36333 80.404725,306.36333 79.044005,306.36333 79.044005,306.36333 79.044005,306.36333 79.603132,303.63735 79.603132,303.63735 79.603132,303.63735 81.870992,303.63735 81.870992,303.63735 81.870992,303.63735 81.805224,304.09685 81.805224,304.09685 81.805224,304.09685 79.990944,304.09685 79.990944,304.09685 79.990944,304.09685 79.61391,305.91396 79.61391,305.91396 79.61391,305.91396 80.06748,305.91396 80.06748,305.91396 80.06748,305.91396 80.363977,304.55381 80.363977,304.55381 80.363977,304.55381 81.724687,304.55381 81.724687,304.55381 81.724687,304.55381 81.189476,306.81095 81.189476,306.81095 M 80.041678,309.84732 C 80.041678,309.84732 79.588108,309.84732 79.588108,309.84732 79.588108,309.84732 80.298097,308.13252 80.298097,308.13252 80.298097,308.13252 79.844527,308.13252 79.844527,308.13252 79.844527,308.13252 79.324501,309.42379 79.324501,309.42379 79.324501,309.42379 77.963781,309.42379 77.963781,309.42379 77.963781,309.42379 78.921616,306.81095 78.921616,306.81095 78.921616,306.81095 81.189476,306.81095 81.189476,306.81095 81.189476,306.81095 81.048373,307.25318 81.048373,307.25318 81.048373,307.25318 79.234093,307.25318 79.234093,307.25318 79.234093,307.25318 78.606135,308.99977 78.606135,308.99977 78.606135,308.99977 79.059705,308.99977 79.059705,308.99977 79.059705,308.99977 79.546564,307.69539 79.546564,307.69539 79.546564,307.69539 80.907274,307.69539 80.907274,307.69539 80.907274,307.69539 80.041678,309.84732 80.041678,309.84732 M 78.442585,312.67079 C 78.442585,312.67079 77.989015,312.67079 77.989015,312.67079 77.989015,312.67079 78.961978,311.09069 78.961978,311.09069 78.961978,311.09069 78.508408,311.09069 78.508408,311.09069 78.508408,311.09069 77.797519,312.28768 77.797519,312.28768 77.797519,312.28768 76.436799,312.28768 76.436799,312.28768 76.436799,312.28768 77.773818,309.84732 77.773818,309.84732 77.773818,309.84732 80.041678,309.84732 80.041678,309.84732 80.041678,309.84732 79.843823,310.26704 79.843823,310.26704 79.843823,310.26704 78.029543,310.26704 78.029543,310.26704 78.029543,310.26704 77.13167,311.89127 77.13167,311.89127 77.13167,311.89127 77.58524,311.89127 77.58524,311.89127 77.58524,311.89127 78.268975,310.67887 78.268975,310.67887 78.268975,310.67887 79.629685,310.67887 79.629685,310.67887 79.629685,310.67887 78.442585,312.67079 78.442585,312.67079 M 76.394739,315.18656 C 76.394739,315.18656 75.941169,315.18656 75.941169,315.18656 75.941169,315.18656 77.165808,313.79304 77.165808,313.79304 77.165808,313.79304 76.712238,313.79304 76.712238,313.79304 76.712238,313.79304 75.80788,314.85098 75.80788,314.85098 75.80788,314.85098 74.44716,314.85098 74.44716,314.85098 74.44716,314.85098 76.174725,312.67079 76.174725,312.67079 76.174725,312.67079 78.442585,312.67079 78.442585,312.67079 78.442585,312.67079 78.18051,313.0539 78.18051,313.0539 78.18051,313.0539 76.36623,313.0539 76.36623,313.0539 76.36623,313.0539 75.209881,314.50476 75.209881,314.50476 75.209881,314.50476 75.663451,314.50476 75.663451,314.50476 75.663451,314.50476 76.544424,313.42727 76.544424,313.42727 76.544424,313.42727 77.905134,313.42727 77.905134,313.42727 77.905134,313.42727 76.394739,315.18656 76.394739,315.18656 M 73.906751,317.26741 C 73.906751,317.26741 73.453181,317.26741 73.453181,317.26741 73.453181,317.26741 74.923249,316.13553 74.923249,316.13553 74.923249,316.13553 74.469679,316.13553 74.469679,316.13553 74.469679,316.13553 73.375207,316.99473 73.375207,316.99473 73.375207,316.99473 72.014487,316.99473 72.014487,316.99473 72.014487,316.99473 74.126879,315.18656 74.126879,315.18656 74.126879,315.18656 76.394739,315.18656 76.394739,315.18656 76.394739,315.18656 76.062665,315.51085 76.062665,315.51085 76.062665,315.51085 74.248385,315.51085 74.248385,315.51085 74.248385,315.51085 72.843656,316.72206 72.843656,316.72206 72.843656,316.72206 73.297226,316.72206 73.297226,316.72206 73.297226,316.72206 74.369888,315.83514 74.369888,315.83514 74.369888,315.83514 75.730598,315.83514 75.730598,315.83514 75.730598,315.83514 73.906751,317.26741 73.906751,317.26741"
       style="fill:#1c219f;fill-opacity:1;fill-rule:evenodd;stroke:none;stroke-width:0.26458332px;stroke-linecap:butt;stroke-linejoin:miter;stroke-opacity:1" />
    <path
       style="fill:#1c3ca8;fill-opacity:1;fill-rule:evenodd;stroke:#1c3ca8;stroke-width:5.31812477;stroke-linecap:butt;stroke-linejoin:miter;stroke-miterlimit:4;stroke-dasharray:none;stroke-opacity:1"
       d="M -0.23359236,326.09167 C 9.3085587,325.86618 15.641407,315.6215 15.628997,306.867 V 297.342 283.94282"
       id="path1489-5-5"
       inkscape:connector-curvature="0" />
    <path
       inkscape:connector-curvature="0"
       id="path3262"
       d="M 3.436307,328.20224 C 3.436307,328.20224 3.095374,326.88518 3.095374,326.88518 3.095374,326.88518 1.622838,327.1434 1.622838,327.1434 1.622838,327.1434 1.567343,326.69332 1.567343,326.69332 1.567343,326.69332 3.416707,326.33356 3.416707,326.33356 3.416707,326.33356 3.303059,325.89453 3.303059,325.89453 3.303059,325.89453 1.065923,326.29821 1.065923,326.29821 1.065923,326.29821 1.232408,327.64846 1.232408,327.64846 1.232408,327.64846 2.668219,327.43572 2.668219,327.43572 2.668219,327.43572 2.753142,327.88118 2.753142,327.88118 2.753142,327.88118 0.705091,328.13682 0.705091,328.13682 0.705091,328.13682 0.602491,326.32576 0.602491,326.32576 0.602491,326.32576 0.1539,326.35118 0.1539,326.35118 0.1539,326.35118 0.28215,328.61499 0.28215,328.61499 0.28215,328.61499 3.436307,328.20224 3.436307,328.20224 M 6.827676,326.98367 C 6.827676,326.98367 6.247866,325.7529 6.247866,325.7529 6.247866,325.7529 4.949121,326.31758 4.949121,326.31758 4.949121,326.31758 4.781121,325.89635 4.781121,325.89635 4.781121,325.89635 6.489123,325.1178 6.489123,325.1178 6.489123,325.1178 6.272008,324.71963 6.272008,324.71963 6.272008,324.71963 4.17663,325.63027 4.17663,325.63027 4.17663,325.63027 4.600851,326.92294 4.600851,326.92294 4.600851,326.92294 6.034667,326.35464 6.034667,326.35464 6.034667,326.35464 6.227937,326.7649 6.227937,326.7649 6.227937,326.7649 4.31535,327.49392 4.31535,327.49392 4.31535,327.49392 3.749723,325.77037 3.749723,325.77037 3.749723,325.77037 3.303059,325.89453 3.303059,325.89453 3.303059,325.89453 3.871285,328.08964 3.871285,328.08964 3.871285,328.08964 6.827676,326.98367 6.827676,326.98367 M 9.9527523,325.00808 C 9.9527523,325.00808 9.113725,323.93703 9.113725,323.93703 9.113725,323.93703 7.922679,324.79878 7.922679,324.79878 7.922679,324.79878 7.683215,324.41364 7.683215,324.41364 7.683215,324.41364 9.212507,323.27813 9.212507,323.27813 9.212507,323.27813 8.914906,322.93589 8.914906,322.93589 8.914906,322.93589 7.062167,324.26575 7.062167,324.26575 7.062167,324.26575 7.780565,325.42117 7.780565,325.42117 7.780565,325.42117 9.039681,324.57114 9.039681,324.57114 9.039681,324.57114 9.319356,324.92816 9.319356,324.92816 9.319356,324.92816 7.534947,326.09717 7.534947,326.09717 7.534947,326.09717 6.6665,324.50452 6.6665,324.50452 6.6665,324.50452 6.272008,324.71963 6.272008,324.71963 6.272008,324.71963 7.357566,326.71044 7.357566,326.71044 7.357566,326.71044 9.9527523,325.00808 9.9527523,325.00808 M 12.582418,322.51354 C 12.582418,322.51354 11.552309,321.62467 11.552309,321.62467 11.552309,321.62467 10.549822,322.67742 10.549822,322.67742 10.549822,322.67742 10.23569,322.3503 10.23569,322.3503 10.23569,322.3503 11.5025,320.98817 11.5025,320.98817 11.5025,320.98817 11.159122,320.69187 11.159122,320.69187 11.159122,320.69187 9.597453,322.3344 9.597453,322.3344 9.597453,322.3344 10.539857,323.31577 10.539857,323.31577 10.539857,323.31577 11.544769,322.30784 11.544769,322.30784 11.544769,322.30784 11.874132,322.61962 11.874132,322.61962 11.874132,322.61962 10.444366,324.00996 10.444366,324.00996 10.444366,324.00996 9.253981,322.64104 9.253981,322.64104 9.253981,322.64104 8.914906,322.93589 8.914906,322.93589 8.914906,322.93589 10.402885,324.64704 10.402885,324.64704 10.402885,324.64704 12.582418,322.51354 12.582418,322.51354 M 14.664222,319.74248 C 14.664222,319.74248 13.527621,318.99455 13.527621,318.99455 13.527621,318.99455 12.739225,320.14597 12.739225,320.14597 12.739225,320.14597 12.371184,319.88094 12.371184,319.88094 12.371184,319.88094 13.399556,318.3234 13.399556,318.3234 13.399556,318.3234 13.006217,318.09777 13.006217,318.09777 13.006217,318.09777 11.728809,319.98398 11.728809,319.98398 11.728809,319.98398 12.797521,320.82607 12.797521,320.82607 12.797521,320.82607 13.659479,319.61923 13.659479,319.61923 13.659479,319.61923 14.038346,319.86854 14.038346,319.86854 14.038346,319.86854 12.875653,321.45972 12.875653,321.45972 12.875653,321.45972 11.450706,320.33693 11.450706,320.33693 11.450706,320.33693 11.159122,320.69187 11.159122,320.69187 11.159122,320.69187 12.875979,322.17333 12.875979,322.17333 12.875979,322.17333 14.664222,319.74248 14.664222,319.74248 M 16.314623,316.66521 C 16.314623,316.66521 15.08477,316.08379 15.08477,316.08379 15.08477,316.08379 14.46351,317.37991 14.46351,317.37991 14.46351,317.37991 14.070179,317.15429 14.070179,317.15429 14.070179,317.15429 14.866841,315.4838 14.866841,315.4838 14.866841,315.4838 14.456881,315.28999 14.456881,315.28999 14.456881,315.28999 13.4533,317.31836 13.4533,317.31836 13.4533,317.31836 14.633302,317.99523 14.633302,317.99523 14.633302,317.99523 15.302702,316.68376 15.302702,316.68376 15.302702,316.68376 15.712653,316.87757 15.712653,316.87757 15.712653,316.87757 14.803094,318.61056 14.803094,318.61056 14.803094,318.61056 13.229761,317.70806 13.229761,317.70806 13.229761,317.70806 13.006217,318.09777 13.006217,318.09777 13.006217,318.09777 14.97288,319.22589 14.97288,319.22589 14.97288,319.22589 16.314623,316.66521 16.314623,316.66521 M 17.534272,313.35666 C 17.534272,313.35666 16.229541,312.97158 16.229541,312.97158 16.229541,312.97158 15.79127,314.3374 15.79127,314.3374 15.79127,314.3374 15.367545,314.1759 15.367545,314.1759 15.367545,314.1759 15.921807,312.41232 15.921807,312.41232 15.921807,312.41232 15.486888,312.28396 15.486888,312.28396 15.486888,312.28396 14.783805,314.43421 14.783805,314.43421 14.783805,314.43421 16.054989,314.9187 16.054989,314.9187 16.054989,314.9187 16.537277,313.53084 16.537277,313.53084 16.537277,313.53084 16.972188,313.65919 16.972188,313.65919 16.972188,313.65919 16.318707,315.50001 16.318707,315.50001 16.318707,315.50001 14.623799,314.85402 14.623799,314.85402 14.623799,314.85402 14.456881,315.28999 14.456881,315.28999 14.456881,315.28999 16.506645,316.25903 16.506645,316.25903 16.506645,316.25903 17.534272,313.35666 17.534272,313.35666 M 18.274223,309.89835 C 18.274223,309.89835 16.92502,309.72477 16.92502,309.72477 16.92502,309.72477 16.682602,311.14245 16.682602,311.14245 16.682602,311.14245 16.238996,311.04848 16.238996,311.04848 16.238996,311.04848 16.532612,309.22132 16.532612,309.22132 16.532612,309.22132 16.082868,309.16346 16.082868,309.16346 16.082868,309.16346 15.702272,311.39401 15.702272,311.39401 15.702272,311.39401 17.033102,311.67594 17.033102,311.67594 17.033102,311.67594 17.317429,310.22821 17.317429,310.22821 17.317429,310.22821 17.767163,310.28607 17.767163,310.28607 17.767163,310.28607 17.383602,312.20942 17.383602,312.20942 17.383602,312.20942 15.609166,311.83352 15.609166,311.83352 15.609166,311.83352 15.486888,312.28396 15.486888,312.28396 15.486888,312.28396 17.661448,312.92575 17.661448,312.92575 17.661448,312.92575 18.274223,309.89835 18.274223,309.89835 M 18.498309,306.44522 C 18.498309,306.44522 17.137599,306.44522 17.137599,306.44522 17.137599,306.44522 17.113385,307.86637 17.113385,307.86637 17.113385,307.86637 16.660802,307.83701 16.660802,307.83701 16.660802,307.83701 16.684029,305.99582 16.684029,305.99582 16.684029,305.99582 16.230449,305.99582 16.230449,305.99582 16.230449,305.99582 16.179118,308.25605 16.179118,308.25605 16.179118,308.25605 17.536878,308.34413 17.536878,308.34413 17.536878,308.34413 17.591169,306.8946 17.591169,306.8946 17.591169,306.8946 18.044739,306.8946 18.044739,306.8946 18.044739,306.8946 17.939142,308.9493 17.939142,308.9493 17.939142,308.9493 16.140195,308.71786 16.140195,308.71786 16.140195,308.71786 16.082868,309.16346 16.082868,309.16346 16.082868,309.16346 18.33155,309.45276 18.33155,309.45276 18.33155,309.45276 18.498309,306.44522 18.498309,306.44522 M 18.498309,303.29952 C 18.498309,303.29952 17.137599,303.29952 17.137599,303.29952 17.137599,303.29952 17.137599,304.64767 17.137599,304.64767 17.137599,304.64767 16.684029,304.64767 16.684029,304.64767 16.684029,304.64767 16.684029,302.85013 16.684029,302.85013 16.684029,302.85013 16.230449,302.85013 16.230449,302.85013 16.230449,302.85013 16.230449,305.09705 16.230449,305.09705 16.230449,305.09705 17.591169,305.09705 17.591169,305.09705 17.591169,305.09705 17.591169,303.7489 17.591169,303.7489 17.591169,303.7489 18.044739,303.7489 18.044739,303.7489 18.044739,303.7489 18.044739,305.54643 18.044739,305.54643 18.044739,305.54643 16.230449,305.54643 16.230449,305.54643 16.230449,305.54643 16.230449,305.99582 16.230449,305.99582 16.230449,305.99582 18.498309,305.99582 18.498309,305.99582 18.498309,305.99582 18.498309,303.29952 18.498309,303.29952 M 18.498309,300.15382 C 18.498309,300.15382 17.137599,300.15382 17.137599,300.15382 17.137599,300.15382 17.137599,301.50197 17.137599,301.50197 17.137599,301.50197 16.684029,301.50197 16.684029,301.50197 16.684029,301.50197 16.684029,299.70443 16.684029,299.70443 16.684029,299.70443 16.230449,299.70443 16.230449,299.70443 16.230449,299.70443 16.230449,301.95135 16.230449,301.95135 16.230449,301.95135 17.591169,301.95135 17.591169,301.95135 17.591169,301.95135 17.591169,300.6032 17.591169,300.6032 17.591169,300.6032 18.044739,300.6032 18.044739,300.6032 18.044739,300.6032 18.044739,302.40073 18.044739,302.40073 18.044739,302.40073 16.230449,302.40073 16.230449,302.40073 16.230449,302.40073 16.230449,302.85013 16.230449,302.85013 16.230449,302.85013 18.498309,302.85013 18.498309,302.85013 18.498309,302.85013 18.498309,300.15382 18.498309,300.15382 M 18.498309,297.00812 C 18.498309,297.00812 17.137599,297.00812 17.137599,297.00812 17.137599,297.00812 17.137599,298.35627 17.137599,298.35627 17.137599,298.35627 16.684029,298.35627 16.684029,298.35627 16.684029,298.35627 16.684029,296.55873 16.684029,296.55873 16.684029,296.55873 16.230449,296.55873 16.230449,296.55873 16.230449,296.55873 16.230449,298.80565 16.230449,298.80565 16.230449,298.80565 17.591169,298.80565 17.591169,298.80565 17.591169,298.80565 17.591169,297.45751 17.591169,297.45751 17.591169,297.45751 18.044739,297.45751 18.044739,297.45751 18.044739,297.45751 18.044739,299.25504 18.044739,299.25504 18.044739,299.25504 16.230449,299.25504 16.230449,299.25504 16.230449,299.25504 16.230449,299.70443 16.230449,299.70443 16.230449,299.70443 18.498309,299.70443 18.498309,299.70443 18.498309,299.70443 18.498309,297.00812 18.498309,297.00812 M 18.498309,293.86243 C 18.498309,293.86243 17.137599,293.86243 17.137599,293.86243 17.137599,293.86243 17.137599,295.21058 17.137599,295.21058 17.137599,295.21058 16.684029,295.21058 16.684029,295.21058 16.684029,295.21058 16.684029,293.41304 16.684029,293.41304 16.684029,293.41304 16.230449,293.41304 16.230449,293.41304 16.230449,293.41304 16.230449,295.65996 16.230449,295.65996 16.230449,295.65996 17.591169,295.65996 17.591169,295.65996 17.591169,295.65996 17.591169,294.31181 17.591169,294.31181 17.591169,294.31181 18.044739,294.31181 18.044739,294.31181 18.044739,294.31181 18.044739,296.10934 18.044739,296.10934 18.044739,296.10934 16.230449,296.10934 16.230449,296.10934 16.230449,296.10934 16.230449,296.55873 16.230449,296.55873 16.230449,296.55873 18.498309,296.55873 18.498309,296.55873 18.498309,296.55873 18.498309,293.86243 18.498309,293.86243 M 18.498309,290.71673 C 18.498309,290.71673 17.137599,290.71673 17.137599,290.71673 17.137599,290.71673 17.137599,292.06488 17.137599,292.06488 17.137599,292.06488 16.684029,292.06488 16.684029,292.06488 16.684029,292.06488 16.684029,290.26734 16.684029,290.26734 16.684029,290.26734 16.230449,290.26734 16.230449,290.26734 16.230449,290.26734 16.230449,292.51426 16.230449,292.51426 16.230449,292.51426 17.591169,292.51426 17.591169,292.51426 17.591169,292.51426 17.591169,291.16611 17.591169,291.16611 17.591169,291.16611 18.044739,291.16611 18.044739,291.16611 18.044739,291.16611 18.044739,292.96364 18.044739,292.96364 18.044739,292.96364 16.230449,292.96364 16.230449,292.96364 16.230449,292.96364 16.230449,293.41304 16.230449,293.41304 16.230449,293.41304 18.498309,293.41304 18.498309,293.41304 18.498309,293.41304 18.498309,290.71673 18.498309,290.71673 M 18.498309,287.57103 C 18.498309,287.57103 17.137599,287.57103 17.137599,287.57103 17.137599,287.57103 17.137599,288.91918 17.137599,288.91918 17.137599,288.91918 16.684029,288.91918 16.684029,288.91918 16.684029,288.91918 16.684029,287.12164 16.684029,287.12164 16.684029,287.12164 16.230449,287.12164 16.230449,287.12164 16.230449,287.12164 16.230449,289.36856 16.230449,289.36856 16.230449,289.36856 17.591169,289.36856 17.591169,289.36856 17.591169,289.36856 17.591169,288.02042 17.591169,288.02042 17.591169,288.02042 18.044739,288.02042 18.044739,288.02042 18.044739,288.02042 18.044739,289.81795 18.044739,289.81795 18.044739,289.81795 16.230449,289.81795 16.230449,289.81795 16.230449,289.81795 16.230449,290.26734 16.230449,290.26734 16.230449,290.26734 18.498309,290.26734 18.498309,290.26734 18.498309,290.26734 18.498309,287.57103 18.498309,287.57103 M 18.498309,284.42534 C 18.498309,284.42534 17.137599,284.42534 17.137599,284.42534 17.137599,284.42534 17.137599,285.77348 17.137599,285.77348 17.137599,285.77348 16.684029,285.77348 16.684029,285.77348 16.684029,285.77348 16.684029,283.97594 16.684029,283.97594 16.684029,283.97594 16.230449,283.97594 16.230449,283.97594 16.230449,283.97594 16.230449,286.22287 16.230449,286.22287 16.230449,286.22287 17.591169,286.22287 17.591169,286.22287 17.591169,286.22287 17.591169,284.87472 17.591169,284.87472 17.591169,284.87472 18.044739,284.87472 18.044739,284.87472 18.044739,284.87472 18.044739,286.67225 18.044739,286.67225 18.044739,286.67225 16.230449,286.67225 16.230449,286.67225 16.230449,286.67225 16.230449,287.12164 16.230449,287.12164 16.230449,287.12164 18.498309,287.12164 18.498309,287.12164 18.498309,287.12164 18.498309,284.42534 18.498309,284.42534 M 3.189415,325.45551 C 3.189415,325.45551 3.07577,325.01648 3.07577,325.01648 3.07577,325.01648 1.400858,325.34307 1.400858,325.34307 1.400858,325.34307 1.345364,324.89299 1.345364,324.89299 1.345364,324.89299 2.527148,324.69006 2.527148,324.69006 2.527148,324.69006 2.186212,323.37299 2.186212,323.37299 2.186212,323.37299 0,323.6346 0,323.6346 0,323.6346 0.12825,325.89841 0.12825,325.89841 0.12825,325.89841 0.576842,325.873 0.576842,325.873 0.576842,325.873 0.474242,324.06195 0.474242,324.06195 0.474242,324.06195 1.988834,323.87197 1.988834,323.87197 1.988834,323.87197 2.073757,324.31744 2.073757,324.31744 2.073757,324.31744 0.84394503,324.49789 0.84394503,324.49789 0.84394503,324.49789 1.010429,325.84813 1.010429,325.84813 1.010429,325.84813 3.189415,325.45551 3.189415,325.45551 M 6.054897,324.32147 C 6.054897,324.32147 5.837786,323.92332 5.837786,323.92332 5.837786,323.92332 4.277118,324.63264 4.277118,324.63264 4.277118,324.63264 4.109118,324.21141 4.109118,324.21141 4.109118,324.21141 5.281513,323.7016 5.281513,323.7016 5.281513,323.7016 4.701699,322.47082 4.701699,322.47082 4.701699,322.47082 2.62119,323.26039 2.62119,323.26039 2.62119,323.26039 3.189415,325.45551 3.189415,325.45551 3.189415,325.45551 3.608318,325.33949 3.608318,325.33949 3.608318,325.33949 3.042694,323.61595 3.042694,323.61595 3.042694,323.61595 4.488504,323.07257 4.488504,323.07257 4.488504,323.07257 4.681773,323.48283 4.681773,323.48283 4.681773,323.48283 3.611007,323.90673 3.611007,323.90673 3.611007,323.90673 4.035224,325.19939 4.035224,325.19939 4.035224,325.19939 6.054897,324.32147 6.054897,324.32147 M 8.617311,322.59366 C 8.617311,322.59366 8.319717,322.25144 8.319717,322.25144 8.319717,322.25144 6.964818,323.25823 6.964818,323.25823 6.964818,323.25823 6.725354,322.8731 6.725354,322.8731 6.725354,322.8731 7.715341,322.15194 7.715341,322.15194 7.715341,322.15194 6.876308,321.08088 6.876308,321.08088 6.876308,321.08088 4.969339,322.33067 4.969339,322.33067 4.969339,322.33067 6.054897,324.32147 6.054897,324.32147 6.054897,324.32147 6.449389,324.10636 6.449389,324.10636 6.449389,324.10636 5.580946,322.51373 5.580946,322.51373 5.580946,322.51373 6.802269,321.715 6.802269,321.715 6.802269,321.715 7.081945,322.07202 7.081945,322.07202 7.081945,322.07202 6.104311,322.72522 6.104311,322.72522 6.104311,322.72522 6.822703,323.88062 6.822703,323.88062 6.822703,323.88062 8.617311,322.59366 8.617311,322.59366 M 10.815753,320.39558 C 10.815753,320.39558 10.472383,320.09929 10.472383,320.09929 10.472383,320.09929 9.293286,321.36894 9.293286,321.36894 9.293286,321.36894 8.979154,321.04182 8.979154,321.04182 8.979154,321.04182 9.8354523,320.14321 9.8354523,320.14321 9.8354523,320.14321 8.805335,319.25433 8.805335,319.25433 8.805335,319.25433 7.129332,320.88252 7.129332,320.88252 7.129332,320.88252 8.617311,322.59366 8.617311,322.59366 8.617311,322.59366 8.956387,322.29881 8.956387,322.29881 8.956387,322.29881 7.766009,320.9299 7.766009,320.9299 7.766009,320.9299 8.909853,319.81358 8.909853,319.81358 8.909853,319.81358 9.239216,320.12536 9.239216,320.12536 9.239216,320.12536 8.340924,321.02593 8.340924,321.02593 8.340924,321.02593 9.28332,322.00729 9.28332,322.00729 9.28332,322.00729 10.815753,320.39558 10.815753,320.39558 M 12.612886,317.87215 C 12.612886,317.87215 12.219555,317.64653 12.219555,317.64653 12.219555,317.64653 11.267053,319.08585 11.267053,319.08585 11.267053,319.08585 10.899012,318.82082 10.899012,318.82082 10.899012,318.82082 11.633276,317.74799 11.633276,317.74799 11.633276,317.74799 10.496666,317.00006 10.496666,317.00006 10.496666,317.00006 9.098896,318.91413 9.098896,318.91413 9.098896,318.91413 10.815753,320.39558 10.815753,320.39558 10.815753,320.39558 11.094471,320.05623 11.094471,320.05623 11.094471,320.05623 9.669533,318.93346 9.669533,318.93346 9.669533,318.93346 10.628533,317.62474 10.628533,317.62474 10.628533,317.62474 11.0074,317.87405 11.0074,317.87405 11.0074,317.87405 10.303871,318.8612 10.303871,318.8612 10.303871,318.8612 11.372575,319.70329 11.372575,319.70329 11.372575,319.70329 12.612886,317.87215 12.612886,317.87215 M 14.04693,315.09618 C 14.04693,315.09618 13.636979,314.90238 13.636979,314.90238 13.636979,314.90238 12.890177,316.47742 12.890177,316.47742 12.890177,316.47742 12.496846,316.2518 12.496846,316.2518 12.496846,316.2518 13.035005,315.11474 13.035005,315.11474 13.035005,315.11474 11.805143,314.53332 11.805143,314.53332 11.805143,314.53332 10.646222,316.74403 10.646222,316.74403 10.646222,316.74403 12.612886,317.87215 12.612886,317.87215 12.612886,317.87215 12.83643,317.48244 12.83643,317.48244 12.83643,317.48244 11.263106,316.57995 11.263106,316.57995 11.263106,316.57995 12.023085,315.1333 12.023085,315.1333 12.023085,315.1333 12.433036,315.3271 12.433036,315.3271 12.433036,315.3271 11.879976,316.41587 11.879976,316.41587 11.879976,316.41587 13.059969,317.09274 13.059969,317.09274 13.059969,317.09274 14.04693,315.09618 14.04693,315.09618 M 15.051977,312.1556 C 15.051977,312.1556 14.617067,312.02724 14.617067,312.02724 14.617067,312.02724 14.096361,313.6914 14.096361,313.6914 14.096361,313.6914 13.672637,313.52991 13.672637,313.52991 13.672637,313.52991 14.05498,312.32978 14.05498,312.32978 14.05498,312.32978 12.75024,311.9447 12.75024,311.9447 12.75024,311.9447 11.997166,314.12714 11.997166,314.12714 11.997166,314.12714 14.04693,315.09618 14.04693,315.09618 14.04693,315.09618 14.200074,314.69253 14.200074,314.69253 14.200074,314.69253 12.505176,314.04654 12.505176,314.04654 12.505176,314.04654 13.057986,312.50396 13.057986,312.50396 13.057986,312.50396 13.492896,312.63232 13.492896,312.63232 13.492896,312.63232 13.088906,313.78822 13.088906,313.78822 13.088906,313.78822 14.36008,314.27271 14.36008,314.27271 14.36008,314.27271 15.051977,312.1556 15.051977,312.1556 M 15.633134,309.1056 C 15.633134,309.1056 15.183399,309.04774 15.183399,309.04774 15.183399,309.04774 14.908166,310.76655 14.908166,310.76655 14.908166,310.76655 14.464559,310.67258 14.464559,310.67258 14.464559,310.67258 14.676338,309.43547 14.676338,309.43547 14.676338,309.43547 13.327125,309.26189 13.327125,309.26189 13.327125,309.26189 12.877417,311.5138 12.877417,311.5138 12.877417,311.5138 15.051977,312.1556 15.051977,312.1556 15.051977,312.1556 15.165559,311.73955 15.165559,311.73955 15.165559,311.73955 13.391133,311.36365 13.391133,311.36365 13.391133,311.36365 13.719544,309.76533 13.719544,309.76533 13.719544,309.76533 14.169279,309.82319 14.169279,309.82319 14.169279,309.82319 13.927846,311.01811 13.927846,311.01811 13.927846,311.01811 15.258666,311.30004 15.258666,311.30004 15.258666,311.30004 15.633134,309.1056 15.633134,309.1056 M 15.776879,305.99582 C 15.776879,305.99582 15.323309,305.99582 15.323309,305.99582 15.323309,305.99582 15.303041,307.74892 15.303041,307.74892 15.303041,307.74892 14.850458,307.71956 14.850458,307.71956 14.850458,307.71956 14.869739,306.44522 14.869739,306.44522 14.869739,306.44522 13.509019,306.44522 13.509019,306.44522 13.509019,306.44522 13.384452,308.8163 13.384452,308.8163 13.384452,308.8163 15.633134,309.1056 15.633134,309.1056 15.633134,309.1056 15.690461,308.66 15.690461,308.66 15.690461,308.66 13.891523,308.42857 13.891523,308.42857 13.891523,308.42857 13.962599,306.8946 13.962599,306.8946 13.962599,306.8946 14.416169,306.8946 14.416169,306.8946 14.416169,306.8946 14.368784,308.1386 14.368784,308.1386 14.368784,308.1386 15.726534,308.22669 15.726534,308.22669 15.726534,308.22669 15.776879,305.99582 15.776879,305.99582 M 15.776879,302.85013 C 15.776879,302.85013 15.323309,302.85013 15.323309,302.85013 15.323309,302.85013 15.323309,304.64767 15.323309,304.64767 15.323309,304.64767 14.869739,304.64767 14.869739,304.64767 14.869739,304.64767 14.869739,303.29952 14.869739,303.29952 14.869739,303.29952 13.509019,303.29952 13.509019,303.29952 13.509019,303.29952 13.509019,305.99582 13.509019,305.99582 13.509019,305.99582 15.776879,305.99582 15.776879,305.99582 15.776879,305.99582 15.776879,305.54643 15.776879,305.54643 15.776879,305.54643 13.962599,305.54643 13.962599,305.54643 13.962599,305.54643 13.962599,303.7489 13.962599,303.7489 13.962599,303.7489 14.416169,303.7489 14.416169,303.7489 14.416169,303.7489 14.416169,305.09705 14.416169,305.09705 14.416169,305.09705 15.776879,305.09705 15.776879,305.09705 15.776879,305.09705 15.776879,302.85013 15.776879,302.85013 M 15.776879,299.70443 C 15.776879,299.70443 15.323309,299.70443 15.323309,299.70443 15.323309,299.70443 15.323309,301.50197 15.323309,301.50197 15.323309,301.50197 14.869739,301.50197 14.869739,301.50197 14.869739,301.50197 14.869739,300.15382 14.869739,300.15382 14.869739,300.15382 13.509019,300.15382 13.509019,300.15382 13.509019,300.15382 13.509019,302.85013 13.509019,302.85013 13.509019,302.85013 15.776879,302.85013 15.776879,302.85013 15.776879,302.85013 15.776879,302.40073 15.776879,302.40073 15.776879,302.40073 13.962599,302.40073 13.962599,302.40073 13.962599,302.40073 13.962599,300.6032 13.962599,300.6032 13.962599,300.6032 14.416169,300.6032 14.416169,300.6032 14.416169,300.6032 14.416169,301.95135 14.416169,301.95135 14.416169,301.95135 15.776879,301.95135 15.776879,301.95135 15.776879,301.95135 15.776879,299.70443 15.776879,299.70443 M 15.776879,296.55873 C 15.776879,296.55873 15.323309,296.55873 15.323309,296.55873 15.323309,296.55873 15.323309,298.35627 15.323309,298.35627 15.323309,298.35627 14.869739,298.35627 14.869739,298.35627 14.869739,298.35627 14.869739,297.00812 14.869739,297.00812 14.869739,297.00812 13.509019,297.00812 13.509019,297.00812 13.509019,297.00812 13.509019,299.70443 13.509019,299.70443 13.509019,299.70443 15.776879,299.70443 15.776879,299.70443 15.776879,299.70443 15.776879,299.25504 15.776879,299.25504 15.776879,299.25504 13.962599,299.25504 13.962599,299.25504 13.962599,299.25504 13.962599,297.45751 13.962599,297.45751 13.962599,297.45751 14.416169,297.45751 14.416169,297.45751 14.416169,297.45751 14.416169,298.80565 14.416169,298.80565 14.416169,298.80565 15.776879,298.80565 15.776879,298.80565 15.776879,298.80565 15.776879,296.55873 15.776879,296.55873 M 15.776879,293.41304 C 15.776879,293.41304 15.323309,293.41304 15.323309,293.41304 15.323309,293.41304 15.323309,295.21058 15.323309,295.21058 15.323309,295.21058 14.869739,295.21058 14.869739,295.21058 14.869739,295.21058 14.869739,293.86243 14.869739,293.86243 14.869739,293.86243 13.509019,293.86243 13.509019,293.86243 13.509019,293.86243 13.509019,296.55873 13.509019,296.55873 13.509019,296.55873 15.776879,296.55873 15.776879,296.55873 15.776879,296.55873 15.776879,296.10934 15.776879,296.10934 15.776879,296.10934 13.962599,296.10934 13.962599,296.10934 13.962599,296.10934 13.962599,294.31181 13.962599,294.31181 13.962599,294.31181 14.416169,294.31181 14.416169,294.31181 14.416169,294.31181 14.416169,295.65996 14.416169,295.65996 14.416169,295.65996 15.776879,295.65996 15.776879,295.65996 15.776879,295.65996 15.776879,293.41304 15.776879,293.41304 M 15.776879,290.26734 C 15.776879,290.26734 15.323309,290.26734 15.323309,290.26734 15.323309,290.26734 15.323309,292.06488 15.323309,292.06488 15.323309,292.06488 14.869739,292.06488 14.869739,292.06488 14.869739,292.06488 14.869739,290.71673 14.869739,290.71673 14.869739,290.71673 13.509019,290.71673 13.509019,290.71673 13.509019,290.71673 13.509019,293.41304 13.509019,293.41304 13.509019,293.41304 15.776879,293.41304 15.776879,293.41304 15.776879,293.41304 15.776879,292.96364 15.776879,292.96364 15.776879,292.96364 13.962599,292.96364 13.962599,292.96364 13.962599,292.96364 13.962599,291.16611 13.962599,291.16611 13.962599,291.16611 14.416169,291.16611 14.416169,291.16611 14.416169,291.16611 14.416169,292.51426 14.416169,292.51426 14.416169,292.51426 15.776879,292.51426 15.776879,292.51426 15.776879,292.51426 15.776879,290.26734 15.776879,290.26734 M 15.776879,287.12164 C 15.776879,287.12164 15.323309,287.12164 15.323309,287.12164 15.323309,287.12164 15.323309,288.91918 15.323309,288.91918 15.323309,288.91918 14.869739,288.91918 14.869739,288.91918 14.869739,288.91918 14.869739,287.57103 14.869739,287.57103 14.869739,287.57103 13.509019,287.57103 13.509019,287.57103 13.509019,287.57103 13.509019,290.26734 13.509019,290.26734 13.509019,290.26734 15.776879,290.26734 15.776879,290.26734 15.776879,290.26734 15.776879,289.81795 15.776879,289.81795 15.776879,289.81795 13.962599,289.81795 13.962599,289.81795 13.962599,289.81795 13.962599,288.02042 13.962599,288.02042 13.962599,288.02042 14.416169,288.02042 14.416169,288.02042 14.416169,288.02042 14.416169,289.36856 14.416169,289.36856 14.416169,289.36856 15.776879,289.36856 15.776879,289.36856 15.776879,289.36856 15.776879,287.12164 15.776879,287.12164 M 15.776879,283.97594 C 15.776879,283.97594 15.323309,283.97594 15.323309,283.97594 15.323309,283.97594 15.323309,285.77348 15.323309,285.77348 15.323309,285.77348 14.869739,285.77348 14.869739,285.77348 14.869739,285.77348 14.869739,284.42534 14.869739,284.42534 14.869739,284.42534 13.509019,284.42534 13.509019,284.42534 13.509019,284.42534 13.509019,287.12164 13.509019,287.12164 13.509019,287.12164 15.776879,287.12164 15.776879,287.12164 15.776879,287.12164 15.776879,286.67225 15.776879,286.67225 15.776879,286.67225 13.962599,286.67225 13.962599,286.67225 13.962599,286.67225 13.962599,284.87472 13.962599,284.87472 13.962599,284.87472 14.416169,284.87472 14.416169,284.87472 14.416169,284.87472 14.416169,286.22287 14.416169,286.22287 14.416169,286.22287 15.776879,286.22287 15.776879,286.22287 15.776879,286.22287 15.776879,283.97594 15.776879,283.97594"
       style="fill:#cc3c2c;fill-opacity:1;fill-rule:evenodd;stroke:none;stroke-width:0.26458332px;stroke-linecap:butt;stroke-linejoin:miter;stroke-opacity:1" />
    <path
       sodipodi:nodetypes="csccc"
       inkscape:connector-curvature="0"
       id="rect6309"
       transform="matrix(0.26458333,0,0,0.26458333,0,230.1927)"
       d="M 6,200.19141 C 1.6364965,210.59253 0,224.58652 0,246.5 V 354.49999 L 6.0000001,353.49999 Z"
       style="opacity:1;fill:#cc3c2c;fill-opacity:1;fill-rule:nonzero;stroke:#1c3ca8;stroke-width:0;stroke-miterlimit:4;stroke-dasharray:none;stroke-opacity:1" />
    <circle
       r="3.96875"
       cy="285.09375"
       cx="15.875"
       id="path6345"
       style="opacity:1;fill:#cc3c2c;fill-opacity:1;fill-rule:nonzero;stroke:#1c3ca8;stroke-width:0;stroke-miterlimit:4;stroke-dasharray:none;stroke-opacity:1" />
    <path
       sodipodi:nodetypes="ccc"
       style="fill:none;fill-opacity:1;fill-rule:evenodd;stroke:#cc3c2c;stroke-width:5.29166651;stroke-linecap:butt;stroke-linejoin:miter;stroke-miterlimit:4;stroke-dasharray:none;stroke-opacity:1"
       d="M 101.41638,261.28123 C 105.25521,266.12759 111.0985,268.95369 117.28104,268.95415 125.80125,268.94299 133.40222,263.5974 136.29384,255.58287"
       id="path1489-8-8"
       inkscape:connector-curvature="0" />
    <path
       style="fill:#ffeea8;fill-opacity:1;fill-rule:evenodd;stroke:none;stroke-width:0.26458332px;stroke-linecap:butt;stroke-linejoin:miter;stroke-opacity:1"
       d="M 130.18844,243.02499 103.84327,260.86524 C 103.07263,261.38712 102.33875,261.87238 101.62377,262.33957 A 20.240625,20.240625 0 0 0 117.48844,270.01249 20.240625,20.240625 0 0 0 136.50123,256.64121 C 133.45538,250.09627 130.18844,243.02499 130.18844,243.02499 Z"
       id="path1489-8-2"
       inkscape:connector-curvature="0" />
    <path
       id="path1489-8-2-7"
       d="M 107.05316,298.26813 C 110.2682,301.19859 114.48387,302.85822 118.90256,302.85855 125.35501,302.84866 131.18423,299.33367 134.24684,293.82499"
       style="fill:none;fill-opacity:1;fill-rule:evenodd;stroke:#cc3c2c;stroke-width:0.26458332px;stroke-linecap:butt;stroke-linejoin:miter;stroke-opacity:1" />
    <path
       id="rect6399"
       transform="matrix(0.26458333,0,0,0.26458333,0,230.1927)"
       d="M 432 198.5 L 432 216.5 L 437 216.5 L 437 198.5 L 432 198.5 z M 457 198.5 L 457 216.5 L 458 216.5 L 458 198.5 L 457 198.5 z M 451 199.5 A 3.9999998 3.9999998 0 0 0 447 203.5 A 3.9999998 3.9999998 0 0 0 451 207.5 A 3.9999998 3.9999998 0 0 0 455 203.5 A 3.9999998 3.9999998 0 0 0 451 199.5 z M 445 207.5 A 3.9999998 3.9999998 0 0 0 441 211.5 A 3.9999998 3.9999998 0 0 0 445 215.5 A 3.9999998 3.9999998 0 0 0 449 211.5 A 3.9999998 3.9999998 0 0 0 445 207.5 z "
       style="opacity:1;fill:#ff24a8;fill-opacity:1;fill-rule:nonzero;stroke:#cc3c2c;stroke-width:0;stroke-miterlimit:4;stroke-dasharray:none;stroke-opacity:1" />
    <path
       id="path1827"
       d="M108.615971007 296.471755676C108.615971007 296.471755676 105.490348993 300.064504324 105.490348993 300.064504324C105.490348993 300.064504324 106.505947533 300.919951942 106.505947533 300.919951942C106.505947533 300.919951942 109.462203796 297.186598701 109.462203796 297.186598701C109.462203796 297.186598701 108.615971007 296.471755676 108.615971007 296.471755676C108.615971007 296.471755676 108.615971007 296.471755676 108.615971007 296.471755676M113.309327842 299.408984802C113.309327842 299.408984802 111.481306271 303.80622928 111.481306271 303.80622928C111.481306271 303.80622928 112.833651199 304.290719425 112.833651199 304.290719425C112.833651199 304.290719425 114.250238382 299.744217502 114.250238382 299.744217502C114.250238382 299.744217502 113.309327842 299.408984802 113.309327842 299.408984802C113.309327842 299.408984802 113.309327842 299.408984802 113.309327842 299.408984802M118.626508194 300.470372321C118.626508194 300.470372321 118.514615662 305.231121688 118.514615662 305.231121688C118.514615662 305.231121688 119.872167111 305.206503827 119.872167111 305.206503827C119.872167111 305.206503827 119.703674078 300.447898354 119.703674078 300.447898354C119.703674078 300.447898354 118.626508194 300.470372321 118.626508194 300.470372321C118.626508194 300.470372321 118.626508194 300.470372321 118.626508194 300.470372321M123.925548584 299.616683554C123.925548584 299.616683554 125.649156655 304.055412369 125.649156655 304.055412369C125.649156655 304.055412369 126.925242754 303.543927503 126.925242754 303.543927503C126.925242754 303.543927503 124.912616415 299.228543343 124.912616415 299.228543343C124.912616415 299.228543343 123.925548584 299.616683554 123.925548584 299.616683554C123.925548584 299.616683554 123.925548584 299.616683554 123.925548584 299.616683554M128.709704743 296.863491619C128.709704743 296.863491619 131.773244702 300.508761634 131.773244702 300.508761634C131.773244702 300.508761634 132.790854695 299.585980764 132.790854695 299.585980764C132.790854695 299.585980764 129.494657305 296.149657937 129.494657305 296.149657937C129.494657305 296.149657937 128.709704743 296.863491619 128.709704743 296.863491619C128.709704743 296.863491619 128.709704743 296.863491619 128.709704743 296.863491619M113.084372599 299.315466455C113.084372599 299.315466455 111.256351028 303.712710933 111.256351028 303.712710933C111.256351028 303.712710933 111.481306271 303.80622928 111.481306271 303.80622928C111.481306271 303.80622928 113.309327842 299.408984802 113.309327842 299.408984802C113.309327842 299.408984802 113.084372599 299.315466455 113.084372599 299.315466455C113.084372599 299.315466455 113.084372599 299.315466455 113.084372599 299.315466455M118.382956684 300.464648097C118.382956684 300.464648097 118.271064153 305.225397464 118.271064153 305.225397464C118.271064153 305.225397464 118.514615662 305.231121688 118.514615662 305.231121688C118.514615662 305.231121688 118.626508194 300.470372321 118.626508194 300.470372321C118.626508194 300.470372321 118.382956684 300.464648097 118.382956684 300.464648097C118.382956684 300.464648097 118.382956684 300.464648097 118.382956684 300.464648097M123.844033918 299.643014972C123.844033918 299.643014972 125.269765592 304.186179782 125.269765592 304.186179782C125.269765592 304.186179782 125.649156655 304.055412369 125.649156655 304.055412369C125.649156655 304.055412369 123.925548584 299.616683554 123.925548584 299.616683554C123.925548584 299.616683554 123.844033918 299.643014972 123.844033918 299.643014972C123.844033918 299.643014972 123.844033918 299.643014972 123.844033918 299.643014972M128.523219182 297.0202169C128.523219182 297.0202169 131.586759141 300.665486914 131.586759141 300.665486914C131.586759141 300.665486914 131.773244702 300.508761634 131.773244702 300.508761634C131.773244702 300.508761634 128.709704743 296.863491619 128.709704743 296.863491619C128.709704743 296.863491619 128.523219182 297.0202169 128.523219182 297.0202169C128.523219182 297.0202169 128.523219182 297.0202169 128.523219182 297.0202169M132.080469528 292.807931161C132.080469528 292.807931161 136.162354892 295.259692897 136.162354892 295.259692897C136.162354892 295.259692897 136.287782682 295.050870868 136.287782682 295.050870868C136.287782682 295.050870868 132.205897318 292.599109132 132.205897318 292.599109132C132.205897318 292.599109132 132.080469528 292.807931161 132.080469528 292.807931161C132.080469528 292.807931161 132.080469528 292.807931161 132.080469528 292.807931161M111.832871881 299.028172713C111.604322193 298.90750654 111.411913043 298.937961494 111.153776017 299.016375215C110.89563899 299.094788937 110.670681989 299.274750732 110.528392989 299.516671057C110.386103967 299.758591369 110.338138518 300.042653363 110.395048498 300.306366637C110.451958476 300.570079911 110.616162909 300.779145623 110.84471261 300.899811772C111.073262298 301.020477945 111.345541258 301.024074298 111.595404143 300.922329553C111.845267029 300.820584806 112.052781559 300.62076078 112.172296903 300.366816482C112.291812269 300.112872196 112.313538376 299.825609426 112.232695724 299.568222711C112.151853074 299.310835995 112.061421583 299.148838862 111.832871881 299.028172713C111.832871881 299.028172713 111.832871881 299.028172713 111.832871881 299.028172713M117.116957823 300.633973981C116.860275298 300.603823965 116.693872953 300.695112296 116.481272309 300.861197002C116.268671664 301.027281708 116.123583357 301.276161142 116.07792516 301.553084665C116.032266939 301.830008183 116.089778911 302.112291664 116.237809099 302.337835956C116.385839287 302.563380248 116.613370911 302.705848425 116.87005344 302.735998413C117.126735965 302.766148429 117.381245977 302.678410758 117.577482378 302.493277653C117.773718778 302.308144548 117.89503695 302.046852959 117.914748278 301.766884059C117.934459631 301.48691516 117.850949491 301.211202537 117.682589134 301.000399827C117.514228779 300.789597117 117.373640352 300.664123969 117.116957823 300.633973981C117.116957823 300.633973981 117.116957823 300.633973981 117.116957823 300.633973981M122.656580939 300.266447647C122.405409037 300.327232757 122.190746823 300.49388235 122.059817541 300.729735413C121.928888258 300.965588477 121.976831523 301.216633097 122.024429862 301.49320174C122.072028177 301.769770388 122.187520798 302.034291203 122.411802223 302.184181121C122.636083647 302.334071041 122.903190544 302.384129587 123.154362441 302.32334445C123.405534343 302.262559341 123.612032799 302.094271886 123.72696481 301.850222577C123.841896822 301.606173268 123.859258314 301.318641511 123.775229957 301.050881016C123.691201623 300.783120513 123.512666603 300.557064812 123.278900564 300.422443594C123.045134526 300.287822374 122.907752835 300.205662511 122.656580939 300.266447647C122.656580939 300.266447647 122.656580939 300.266447647 122.656580939 300.266447647M127.640658098 298.022729992C127.432352562 298.1756741 127.391658612 298.31563507 127.344311087 298.581206841C127.296963562 298.846778613 127.355148123 299.128897935 127.50606483 299.365501773C127.656981516 299.602105624 127.888268041 299.773812641 128.149044005 299.842849232C128.409819969 299.911885826 128.684842493 299.88152966 128.893148014 299.728585529C129.10145355 299.575641421 129.235248241 299.339099721 129.26509878 299.07099691C129.294949319 298.802894099 129.218410503 298.525191767 129.052320001 298.298981261C128.886229519 298.072770741 128.644192615 297.916582029 128.37945465 297.864774867C128.114716684 297.812967703 127.848963618 297.869785861 127.640658098 298.022729992C127.640658098 298.022729992 127.640658098 298.022729992 127.640658098 298.022729992M131.601861455 294.059209748C131.454304461 294.271363525 131.491186088 294.437072726 131.532138755 294.703704395C131.573091422 294.970336065 131.71926517 295.218548318 131.938503439 295.393737288C132.157741694 295.568926277 132.432085618 295.656741419 132.701182675 295.637864378C132.970279731 295.618987339 133.191674158 295.479737118 133.33923113 295.267583325C133.486788124 295.055429549 133.533952084 294.795351027 133.457929623 294.536527556C133.38190716 294.277704085 133.204045074 294.051119614 132.963470995 293.906620146C132.722896929 293.762120657 132.439317441 293.711542811 132.175116787 293.766013161C131.910916133 293.820483511 131.749418426 293.847055956 131.601861455 294.059209748C131.601861455 294.059209748 131.601861455 294.059209748 131.601861455 294.059209748M109.573810438 300.17874771C109.357292032 300.037627124 109.088763066 299.995691241 108.827296855 300.062165475C108.565830643 300.128639711 108.309674713 300.268592137 108.14576983 300.496422572C107.981864926 300.724252992 107.965381536 301.049896505 108.010118602 301.315945371C108.054855667 301.581994237 108.201627473 301.810739643 108.418145895 301.951860206C108.634664301 302.092980792 108.991851392 302.166722089 109.249988418 302.088308368C109.508125444 302.009894646 109.788721082 301.856339928 109.91975914 301.608145147C110.050797221 301.359950379 110.065625916 301.06203022 110.008715937 300.798316946C109.951805959 300.534603672 109.79032886 300.319868273 109.573810438 300.17874771C109.573810438 300.17874771 109.573810438 300.17874771 109.573810438 300.17874771M115.426887227 302.508084954C115.174103831 302.454273754 114.902490569 302.514563489 114.675451253 302.660290833C114.448411936 302.806018177 114.280944912 303.040424987 114.209891016 303.311944435C114.138837096 303.583463877 114.17001667 303.869854505 114.296570588 304.108113642C114.423124506 304.346372779 114.733433281 304.524367486 114.986216685 304.578178659C115.239000082 304.631989859 115.598416231 304.578603896 115.811016875 304.41251919C116.02361752 304.246434484 116.168705827 303.99755505 116.214364024 303.720631527C116.260022245 303.443708009 116.202510273 303.161424528 116.054480085 302.935880236C115.906449897 302.710335944 115.679670631 302.561896127 115.426887227 302.508084954C115.426887227 302.508084954 115.426887227 302.508084954 115.426887227 302.508084954M121.723767818 302.618637255C121.469090095 302.662468072 121.235717533 302.811061618 121.074372907 303.02724784C120.91302828 303.243434063 120.83860716 303.521708115 120.867481345 303.800852875C120.896355505 304.079997638 121.026159748 304.33714703 121.228338623 304.515731113C121.430517496 304.694315198 121.828029519 304.748074777 122.082707238 304.704243933C122.337384961 304.660413116 122.562723389 304.50851102 122.709150632 304.281954379C122.855577876 304.055397737 122.99574074 303.739149622 122.929730796 303.466388146C122.863720876 303.193626663 122.669083574 302.97177821 122.45534213 302.807207724C122.241600686 302.642637236 121.978445537 302.57480641 121.723767818 302.618637255C121.723767818 302.618637255 121.723767818 302.618637255 121.723767818 302.618637255M127.657143349 300.50746071C127.430623893 300.631846937 127.267041573 300.848857791 127.202382638 301.110753354C127.137723703 301.372648918 127.13063137 301.679024291 127.249249537 301.933360077C127.367867681 302.187695873 127.666970458 302.336458783 127.922658403 302.42244564C128.178346347 302.508432498 128.449247641 302.486859942 128.675767085 302.36247369C128.902286542 302.238087464 129.169286852 301.937604152 129.216634377 301.672032381C129.263981902 301.406460609 129.205797341 301.124341287 129.054880634 300.887737449C128.903963948 300.651133598 128.672677423 300.479426582 128.411901459 300.41038999C128.151125495 300.341353396 127.883662793 300.383074458 127.657143349 300.50746071C127.657143349 300.50746071 127.657143349 300.50746071 127.657143349 300.50746071M132.461008801 296.434892562C132.299686346 296.636777698 132.219099597 296.898606472 132.242338553 297.167362415C132.265577509 297.436118358 132.395025118 297.693450196 132.60220438 297.882747858C132.809383626 298.072045539 133.077323484 298.177802768 133.347080239 298.176754157C133.616836994 298.175705547 133.9529641 297.957879405 134.114286534 297.755994251C134.275608989 297.554109116 134.343232033 297.290899112 134.302279366 297.024267443C134.261326699 296.757635773 134.160123385 296.431973812 133.92973383 296.27173352C133.699344291 296.111493208 133.402332503 296.071230419 133.133235446 296.09010746C132.86413839 296.108984499 132.622331235 296.233007409 132.461008801 296.434892562C132.461008801 296.434892562 132.461008801 296.434892562 132.461008801 296.434892562"
       style="opacity:1;fill:#ff24a8;fill-opacity:1;fill-rule:nonzero;stroke:#cc3c2c;stroke-width:0;stroke-miterlimit:4;stroke-dasharray:none;stroke-opacity:1" />
    <path
       inkscape:connector-curvature="0"
       id="path1827-5"
       d="M 23.39085,267.25571 C 23.39085,267.25571 20.265229,270.84845 20.265229,270.84845 20.265229,270.84845 21.280829,271.7039 21.280829,271.7039 21.280829,271.7039 24.237079,267.97055 24.237079,267.97055 24.237079,267.97055 23.39085,267.25571 23.39085,267.25571 23.39085,267.25571 23.39085,267.25571 23.39085,267.25571 M 28.084209,270.19293 C 28.084209,270.19293 26.256189,274.59018 26.256189,274.59018 26.256189,274.59018 27.60853,275.07467 27.60853,275.07467 27.60853,275.07467 29.02512,270.52817 29.02512,270.52817 29.02512,270.52817 28.084209,270.19293 28.084209,270.19293 28.084209,270.19293 28.084209,270.19293 28.084209,270.19293 M 33.40139,271.25432 C 33.40139,271.25432 33.2895,276.01507 33.2895,276.01507 33.2895,276.01507 34.64705,275.99045 34.64705,275.99045 34.64705,275.99045 34.47855,271.23185 34.47855,271.23185 34.47855,271.23185 33.40139,271.25432 33.40139,271.25432 33.40139,271.25432 33.40139,271.25432 33.40139,271.25432 M 38.70043,270.40063 C 38.70043,270.40063 40.42404,274.83936 40.42404,274.83936 40.42404,274.83936 41.70012,274.32788 41.70012,274.32788 41.70012,274.32788 39.6875,270.01249 39.6875,270.01249 39.6875,270.01249 38.70043,270.40063 38.70043,270.40063 38.70043,270.40063 38.70043,270.40063 38.70043,270.40063 M 43.48458,267.64744 C 43.48458,267.64744 46.54812,271.29271 46.54812,271.29271 46.54812,271.29271 47.56573,270.36993 47.56573,270.36993 47.56573,270.36993 44.26954,266.93361 44.26954,266.93361 44.26954,266.93361 43.48458,267.64744 43.48458,267.64744 43.48458,267.64744 43.48458,267.64744 43.48458,267.64744 M 27.85925,270.09942 C 27.85925,270.09942 26.03123,274.49666 26.03123,274.49666 26.03123,274.49666 26.256189,274.59018 26.256189,274.59018 26.256189,274.59018 28.084209,270.19293 28.084209,270.19293 28.084209,270.19293 27.85925,270.09942 27.85925,270.09942 27.85925,270.09942 27.85925,270.09942 27.85925,270.09942 M 33.15784,271.2486 C 33.15784,271.2486 33.04594,276.00935 33.04594,276.00935 33.04594,276.00935 33.2895,276.01507 33.2895,276.01507 33.2895,276.01507 33.40139,271.25432 33.40139,271.25432 33.40139,271.25432 33.15784,271.2486 33.15784,271.2486 33.15784,271.2486 33.15784,271.2486 33.15784,271.2486 M 38.61891,270.42696 C 38.61891,270.42696 40.04465,274.97013 40.04465,274.97013 40.04465,274.97013 40.42404,274.83936 40.42404,274.83936 40.42404,274.83936 38.70043,270.40063 38.70043,270.40063 38.70043,270.40063 38.61891,270.42696 38.61891,270.42696 38.61891,270.42696 38.61891,270.42696 38.61891,270.42696 M 43.2981,267.80417 C 43.2981,267.80417 46.36164,271.44944 46.36164,271.44944 46.36164,271.44944 46.54812,271.29271 46.54812,271.29271 46.54812,271.29271 43.48458,267.64744 43.48458,267.64744 43.48458,267.64744 43.2981,267.80417 43.2981,267.80417 43.2981,267.80417 43.2981,267.80417 43.2981,267.80417 M 46.85535,263.59188 C 46.85535,263.59188 50.937231,266.04364 50.937231,266.04364 50.937231,266.04364 51.062659,265.83482 51.062659,265.83482 51.062659,265.83482 46.980781,263.38306 46.980781,263.38306 46.980781,263.38306 46.85535,263.59188 46.85535,263.59188 46.85535,263.59188 46.85535,263.59188 46.85535,263.59188 M 26.607749,269.81212 C 26.379199,269.69146 26.186789,269.72191 25.928659,269.80033 25.670519,269.87874 25.44556,270.0587 25.303269,270.30062 25.160979,270.54254 25.11302,270.8266 25.16993,271.09032 25.226839,271.35403 25.391039,271.5631 25.619589,271.68376 25.848139,271.80443 26.12042,271.80802 26.370279,271.70628 26.620149,271.60453 26.827659,271.40471 26.947179,271.15077 27.066689,270.89682 27.088419,270.60956 27.007579,270.35217 26.92673,270.09479 26.836299,269.93279 26.607749,269.81212 26.607749,269.81212 26.607749,269.81212 26.607749,269.81212 M 31.89184,271.41792 C 31.63516,271.38777 31.46875,271.47906 31.25615,271.64515 31.04355,271.81123 30.89846,272.06011 30.85281,272.33703 30.80715,272.61396 30.86466,272.89624 31.01269,273.12179 31.16072,273.34733 31.38825,273.4898 31.64493,273.51995 31.90162,273.5501 32.15613,273.46236 32.35236,273.27723 32.5486,273.09209 32.66992,272.8308 32.68963,272.55083 32.70934,272.27087 32.62583,271.99515 32.45747,271.78435 32.28911,271.57355 32.14852,271.44807 31.89184,271.41792 31.89184,271.41792 31.89184,271.41792 31.89184,271.41792 M 37.43146,271.0504 C 37.18029,271.11118 36.96563,271.27783 36.8347,271.51369 36.70377,271.74954 36.75171,272.00058 36.79931,272.27715 36.84691,272.55372 36.9624,272.81824 37.18668,272.96813 37.41096,273.11802 37.67807,273.16808 37.92924,273.10729 38.18041,273.04651 38.38691,272.87822 38.50184,272.63417 38.61678,272.39012 38.63414,272.10259 38.55011,271.83483 38.46608,271.56707 38.28755,271.34101 38.05378,271.20639 37.82001,271.07177 37.68263,270.98961 37.43146,271.0504 37.43146,271.0504 37.43146,271.0504 37.43146,271.0504 M 42.41554,268.80668 C 42.20723,268.95962 42.16654,269.09959 42.11919,269.36516 42.07184,269.63073 42.13003,269.91285 42.28094,270.14945 42.43186,270.38606 42.66315,270.55776 42.92392,270.6268 43.1847,270.69584 43.45972,270.66548 43.66803,270.51254 43.87633,270.35959 44.01013,270.12305 44.03998,269.85495 44.06983,269.58684 43.99329,269.30914 43.8272,269.08293 43.66111,268.85672 43.41907,268.70053 43.15433,268.64872 42.8896,268.59692 42.62384,268.65374 42.41554,268.80668 42.41554,268.80668 42.41554,268.80668 42.41554,268.80668 M 46.37674,264.84316 C 46.22918,265.05531 46.26607,265.22102 46.30702,265.48765 46.34797,265.75429 46.49415,266.0025 46.71338,266.17769 46.932619,266.35288 47.206971,266.44069 47.47606,266.42181 47.74516,266.40294 47.96655,266.26369 48.114111,266.05153 48.261669,265.83938 48.308831,265.5793 48.232811,265.32048 48.156791,265.06165 47.97893,264.83507 47.73835,264.69057 47.49778,264.54607 47.214199,264.49549 46.95,264.54996 46.6858,264.60443 46.5243,264.63101 46.37674,264.84316 46.37674,264.84316 46.37674,264.84316 46.37674,264.84316 M 24.348689,270.9627 C 24.132169,270.82158 23.863639,270.77964 23.602179,270.84612 23.340709,270.91259 23.084549,271.05254 22.920649,271.28037 22.756739,271.5082 22.740259,271.83385 22.784999,272.0999 22.829739,272.36594 22.976509,272.59469 23.193029,272.73581 23.409539,272.87693 23.766729,272.95067 24.02487,272.87226 24.283009,272.79384 24.5636,272.64029 24.694639,272.3921 24.825679,272.1439 24.84051,271.84598 24.7836,271.58227 24.726689,271.31855 24.56521,271.10382 24.348689,270.9627 24.348689,270.9627 24.348689,270.9627 24.348689,270.9627 M 30.20177,273.29203 C 29.94898,273.23822 29.677369,273.29851 29.450329,273.44424 29.22329,273.58997 29.055819,273.82437 28.98477,274.09589 28.913719,274.36741 28.9449,274.6538 29.071449,274.89206 29.197999,275.13032 29.508309,275.30832 29.761099,275.36213 30.013879,275.41594 30.3733,275.36255 30.5859,275.19647 30.7985,275.03038 30.94359,274.78151 30.98924,274.50458 31.0349,274.22766 30.97739,273.94537 30.82936,273.71983 30.68133,273.49429 30.45455,273.34585 30.20177,273.29203 30.20177,273.29203 30.20177,273.29203 30.20177,273.29203 M 36.49865,273.40259 C 36.24397,273.44642 36.0106,273.59501 35.84925,273.8112 35.68791,274.02738 35.61349,274.30566 35.64236,274.5848 35.67124,274.86395 35.80104,275.1211 36.00322,275.29968 36.2054,275.47827 36.60291,275.53202 36.85759,275.48819 37.11226,275.44436 37.3376,275.29246 37.48403,275.0659 37.63046,274.83935 37.77062,274.5231 37.70461,274.25034 37.6386,273.97758 37.44396,273.75573 37.23022,273.59116 37.01648,273.42659 36.75333,273.35876 36.49865,273.40259 36.49865,273.40259 36.49865,273.40259 36.49865,273.40259 M 42.43202,271.29141 C 42.2055,271.4158 42.04192,271.63281 41.97726,271.8947 41.9126,272.1566 41.90551,272.46297 42.02413,272.71731 42.14275,272.97165 42.44185,273.12041 42.69754,273.2064 42.95323,273.29238 43.22413,273.27081 43.45065,273.14642 43.67717,273.02204 43.94417,272.72155 43.99151,272.45598 44.03886,272.19041 43.98068,271.90829 43.82976,271.67169 43.67884,271.43508 43.44756,271.26338 43.18678,271.19434 42.92601,271.1253 42.65854,271.16702 42.43202,271.29141 42.43202,271.29141 42.43202,271.29141 42.43202,271.29141 M 47.23589,267.21884 C 47.074571,267.42073 46.993979,267.68256 47.01722,267.95131 47.040461,268.22007 47.169911,268.4774 47.37708,268.6667 47.584259,268.856 47.8522,268.96175 48.121961,268.9607 48.39172,268.95966 48.727841,268.74183 48.889171,268.53994 49.05049,268.33806 49.118109,268.07485 49.07716,267.80822 49.03621,267.54159 48.934999,267.21592 48.704611,267.05568 48.474219,266.89544 48.177211,266.85518 47.908119,266.87406 47.63902,266.89293 47.397209,267.01696 47.23589,267.21884 47.23589,267.21884 47.23589,267.21884 47.23589,267.21884"
       style="opacity:1;fill:#cc3c2c;fill-opacity:1;fill-rule:nonzero;stroke:#cc3c2c;stroke-width:0;stroke-miterlimit:4;stroke-dasharray:none;stroke-opacity:1" />
  </g>
</svg>
